<mxfile host="app.diagrams.net" modified="2023-12-29T01:20:33.489Z" agent="Mozilla/5.0 (Windows NT 10.0; Win64; x64) AppleWebKit/537.36 (KHTML, like Gecko) Chrome/120.0.0.0 Safari/537.36" etag="LhC9fQfQCjUzohsEmIlw" version="22.1.15" type="device">
  <diagram name="페이지-1" id="k86Nnk8i_f4Q3zjXNnSh">
    <mxGraphModel dx="1434" dy="780" grid="1" gridSize="10" guides="1" tooltips="1" connect="1" arrows="1" fold="1" page="1" pageScale="1" pageWidth="827" pageHeight="1169" math="0" shadow="0">
      <root>
        <mxCell id="0" />
        <mxCell id="1" parent="0" />
        <mxCell id="blV9PTF11IVI_z7g0Vjc-1" value="비회원" style="shape=umlActor;verticalLabelPosition=bottom;verticalAlign=top;html=1;outlineConnect=0;" vertex="1" parent="1">
          <mxGeometry x="39" y="330" width="30" height="60" as="geometry" />
        </mxCell>
        <mxCell id="blV9PTF11IVI_z7g0Vjc-2" value="회원" style="shape=umlActor;verticalLabelPosition=bottom;verticalAlign=top;html=1;outlineConnect=0;" vertex="1" parent="1">
          <mxGeometry x="39" y="510" width="30" height="60" as="geometry" />
        </mxCell>
        <mxCell id="blV9PTF11IVI_z7g0Vjc-3" value="관리자" style="shape=umlActor;verticalLabelPosition=bottom;verticalAlign=top;html=1;outlineConnect=0;" vertex="1" parent="1">
          <mxGeometry x="758" y="430" width="30" height="60" as="geometry" />
        </mxCell>
        <mxCell id="blV9PTF11IVI_z7g0Vjc-5" value="코리아IT&lt;br&gt;SYSTEM" style="shape=umlFrame;whiteSpace=wrap;html=1;pointerEvents=0;width=70;height=40;" vertex="1" parent="1">
          <mxGeometry x="120" y="10" width="690" height="870" as="geometry" />
        </mxCell>
        <mxCell id="blV9PTF11IVI_z7g0Vjc-6" value="회원가입" style="ellipse;whiteSpace=wrap;html=1;" vertex="1" parent="1">
          <mxGeometry x="239" y="320" width="90" height="40" as="geometry" />
        </mxCell>
        <mxCell id="blV9PTF11IVI_z7g0Vjc-7" value="회원수정" style="ellipse;whiteSpace=wrap;html=1;" vertex="1" parent="1">
          <mxGeometry x="239" y="530" width="90" height="40" as="geometry" />
        </mxCell>
        <mxCell id="blV9PTF11IVI_z7g0Vjc-8" value="회원삭제" style="ellipse;whiteSpace=wrap;html=1;" vertex="1" parent="1">
          <mxGeometry x="239" y="620" width="90" height="40" as="geometry" />
        </mxCell>
        <mxCell id="blV9PTF11IVI_z7g0Vjc-9" value="회원조회" style="ellipse;whiteSpace=wrap;html=1;" vertex="1" parent="1">
          <mxGeometry x="239" y="710" width="90" height="40" as="geometry" />
        </mxCell>
        <mxCell id="blV9PTF11IVI_z7g0Vjc-12" value="" style="endArrow=none;html=1;rounded=0;endFill=0;" edge="1" parent="1" target="blV9PTF11IVI_z7g0Vjc-6">
          <mxGeometry width="50" height="50" relative="1" as="geometry">
            <mxPoint x="99" y="360" as="sourcePoint" />
            <mxPoint x="149" y="320" as="targetPoint" />
          </mxGeometry>
        </mxCell>
        <mxCell id="blV9PTF11IVI_z7g0Vjc-16" value="Use" style="edgeLabel;html=1;align=center;verticalAlign=middle;resizable=0;points=[];" vertex="1" connectable="0" parent="blV9PTF11IVI_z7g0Vjc-12">
          <mxGeometry x="0.0143" y="-3" relative="1" as="geometry">
            <mxPoint as="offset" />
          </mxGeometry>
        </mxCell>
        <mxCell id="blV9PTF11IVI_z7g0Vjc-13" value="" style="endArrow=none;html=1;rounded=0;entryX=0;entryY=0.5;entryDx=0;entryDy=0;endFill=0;" edge="1" parent="1" target="blV9PTF11IVI_z7g0Vjc-7">
          <mxGeometry width="50" height="50" relative="1" as="geometry">
            <mxPoint x="89" y="530" as="sourcePoint" />
            <mxPoint x="139" y="570" as="targetPoint" />
          </mxGeometry>
        </mxCell>
        <mxCell id="blV9PTF11IVI_z7g0Vjc-37" value="Use" style="edgeLabel;html=1;align=center;verticalAlign=middle;resizable=0;points=[];" vertex="1" connectable="0" parent="blV9PTF11IVI_z7g0Vjc-13">
          <mxGeometry x="0.2594" y="-3" relative="1" as="geometry">
            <mxPoint as="offset" />
          </mxGeometry>
        </mxCell>
        <mxCell id="blV9PTF11IVI_z7g0Vjc-14" value="" style="endArrow=none;html=1;rounded=0;entryX=0;entryY=0.5;entryDx=0;entryDy=0;endFill=0;" edge="1" parent="1" target="blV9PTF11IVI_z7g0Vjc-8">
          <mxGeometry width="50" height="50" relative="1" as="geometry">
            <mxPoint x="89" y="530" as="sourcePoint" />
            <mxPoint x="139" y="570" as="targetPoint" />
          </mxGeometry>
        </mxCell>
        <mxCell id="blV9PTF11IVI_z7g0Vjc-38" value="Use" style="edgeLabel;html=1;align=center;verticalAlign=middle;resizable=0;points=[];" vertex="1" connectable="0" parent="blV9PTF11IVI_z7g0Vjc-14">
          <mxGeometry x="0.226" y="2" relative="1" as="geometry">
            <mxPoint as="offset" />
          </mxGeometry>
        </mxCell>
        <mxCell id="blV9PTF11IVI_z7g0Vjc-15" value="" style="endArrow=none;html=1;rounded=0;entryX=0;entryY=0.5;entryDx=0;entryDy=0;endFill=0;" edge="1" parent="1" target="blV9PTF11IVI_z7g0Vjc-9">
          <mxGeometry width="50" height="50" relative="1" as="geometry">
            <mxPoint x="89" y="530" as="sourcePoint" />
            <mxPoint x="139" y="570" as="targetPoint" />
          </mxGeometry>
        </mxCell>
        <mxCell id="blV9PTF11IVI_z7g0Vjc-39" value="Use" style="edgeLabel;html=1;align=center;verticalAlign=middle;resizable=0;points=[];" vertex="1" connectable="0" parent="blV9PTF11IVI_z7g0Vjc-15">
          <mxGeometry x="0.1616" y="4" relative="1" as="geometry">
            <mxPoint as="offset" />
          </mxGeometry>
        </mxCell>
        <mxCell id="blV9PTF11IVI_z7g0Vjc-18" value="로그인" style="ellipse;whiteSpace=wrap;html=1;" vertex="1" parent="1">
          <mxGeometry x="438" y="620" width="90" height="40" as="geometry" />
        </mxCell>
        <mxCell id="blV9PTF11IVI_z7g0Vjc-19" value="" style="endArrow=open;dashed=1;html=1;rounded=0;entryX=0.056;entryY=0.3;entryDx=0;entryDy=0;endFill=0;entryPerimeter=0;" edge="1" parent="1">
          <mxGeometry width="50" height="50" relative="1" as="geometry">
            <mxPoint x="329" y="550" as="sourcePoint" />
            <mxPoint x="434.03999999999996" y="632" as="targetPoint" />
          </mxGeometry>
        </mxCell>
        <mxCell id="blV9PTF11IVI_z7g0Vjc-24" value="&amp;lt;&amp;lt;include&amp;gt;&amp;gt;" style="edgeLabel;html=1;align=center;verticalAlign=middle;resizable=0;points=[];" vertex="1" connectable="0" parent="blV9PTF11IVI_z7g0Vjc-19">
          <mxGeometry x="-0.0769" y="1" relative="1" as="geometry">
            <mxPoint as="offset" />
          </mxGeometry>
        </mxCell>
        <mxCell id="blV9PTF11IVI_z7g0Vjc-20" value="" style="endArrow=open;dashed=1;html=1;dashPattern=1 3;strokeWidth=2;rounded=0;exitX=1;exitY=0.5;exitDx=0;exitDy=0;endFill=0;entryX=0.044;entryY=0.725;entryDx=0;entryDy=0;entryPerimeter=0;" edge="1" parent="1" source="blV9PTF11IVI_z7g0Vjc-9">
          <mxGeometry width="50" height="50" relative="1" as="geometry">
            <mxPoint x="349" y="690" as="sourcePoint" />
            <mxPoint x="432.96000000000004" y="649" as="targetPoint" />
          </mxGeometry>
        </mxCell>
        <mxCell id="blV9PTF11IVI_z7g0Vjc-22" value="&amp;lt;&amp;lt;include&amp;gt;&amp;gt;" style="edgeLabel;html=1;align=center;verticalAlign=middle;resizable=0;points=[];" vertex="1" connectable="0" parent="blV9PTF11IVI_z7g0Vjc-20">
          <mxGeometry x="-0.0738" y="1" relative="1" as="geometry">
            <mxPoint as="offset" />
          </mxGeometry>
        </mxCell>
        <mxCell id="blV9PTF11IVI_z7g0Vjc-21" value="" style="endArrow=open;dashed=1;html=1;rounded=0;endFill=0;" edge="1" parent="1">
          <mxGeometry width="50" height="50" relative="1" as="geometry">
            <mxPoint x="329" y="640" as="sourcePoint" />
            <mxPoint x="429" y="640" as="targetPoint" />
          </mxGeometry>
        </mxCell>
        <mxCell id="blV9PTF11IVI_z7g0Vjc-23" value="&amp;lt;&amp;lt;include&amp;gt;&amp;gt;" style="edgeLabel;html=1;align=center;verticalAlign=middle;resizable=0;points=[];" vertex="1" connectable="0" parent="blV9PTF11IVI_z7g0Vjc-21">
          <mxGeometry y="-1" relative="1" as="geometry">
            <mxPoint as="offset" />
          </mxGeometry>
        </mxCell>
        <mxCell id="blV9PTF11IVI_z7g0Vjc-25" value="학원소개" style="ellipse;whiteSpace=wrap;html=1;" vertex="1" parent="1">
          <mxGeometry x="239" y="430" width="90" height="40" as="geometry" />
        </mxCell>
        <mxCell id="blV9PTF11IVI_z7g0Vjc-27" value="" style="endArrow=none;html=1;rounded=0;entryX=0;entryY=0.5;entryDx=0;entryDy=0;" edge="1" parent="1" target="blV9PTF11IVI_z7g0Vjc-25">
          <mxGeometry width="50" height="50" relative="1" as="geometry">
            <mxPoint x="99" y="370" as="sourcePoint" />
            <mxPoint x="149" y="320" as="targetPoint" />
          </mxGeometry>
        </mxCell>
        <mxCell id="blV9PTF11IVI_z7g0Vjc-29" value="Use" style="edgeLabel;html=1;align=center;verticalAlign=middle;resizable=0;points=[];" vertex="1" connectable="0" parent="blV9PTF11IVI_z7g0Vjc-27">
          <mxGeometry x="0.0738" y="-2" relative="1" as="geometry">
            <mxPoint x="-1" as="offset" />
          </mxGeometry>
        </mxCell>
        <mxCell id="blV9PTF11IVI_z7g0Vjc-28" value="" style="endArrow=none;html=1;rounded=0;entryX=0;entryY=0.5;entryDx=0;entryDy=0;" edge="1" parent="1" target="blV9PTF11IVI_z7g0Vjc-25">
          <mxGeometry width="50" height="50" relative="1" as="geometry">
            <mxPoint x="89" y="520" as="sourcePoint" />
            <mxPoint x="139" y="470" as="targetPoint" />
          </mxGeometry>
        </mxCell>
        <mxCell id="blV9PTF11IVI_z7g0Vjc-30" value="Use" style="edgeLabel;html=1;align=center;verticalAlign=middle;resizable=0;points=[];" vertex="1" connectable="0" parent="blV9PTF11IVI_z7g0Vjc-28">
          <mxGeometry x="0.1635" y="-4" relative="1" as="geometry">
            <mxPoint as="offset" />
          </mxGeometry>
        </mxCell>
        <mxCell id="blV9PTF11IVI_z7g0Vjc-35" value="" style="edgeStyle=orthogonalEdgeStyle;rounded=0;orthogonalLoop=1;jettySize=auto;html=1;startArrow=none;startFill=0;endArrow=none;endFill=0;" edge="1" parent="1" source="blV9PTF11IVI_z7g0Vjc-31">
          <mxGeometry relative="1" as="geometry">
            <mxPoint x="339" y="450" as="targetPoint" />
          </mxGeometry>
        </mxCell>
        <mxCell id="blV9PTF11IVI_z7g0Vjc-31" value="소개" style="ellipse;whiteSpace=wrap;html=1;" vertex="1" parent="1">
          <mxGeometry x="361" y="385" width="86" height="30" as="geometry" />
        </mxCell>
        <mxCell id="blV9PTF11IVI_z7g0Vjc-34" value="" style="edgeStyle=orthogonalEdgeStyle;rounded=0;orthogonalLoop=1;jettySize=auto;html=1;endArrow=open;endFill=0;" edge="1" parent="1" source="blV9PTF11IVI_z7g0Vjc-32" target="blV9PTF11IVI_z7g0Vjc-25">
          <mxGeometry relative="1" as="geometry" />
        </mxCell>
        <mxCell id="blV9PTF11IVI_z7g0Vjc-32" value="연혁" style="ellipse;whiteSpace=wrap;html=1;" vertex="1" parent="1">
          <mxGeometry x="361" y="435" width="86" height="30" as="geometry" />
        </mxCell>
        <mxCell id="blV9PTF11IVI_z7g0Vjc-36" value="" style="edgeStyle=orthogonalEdgeStyle;rounded=0;orthogonalLoop=1;jettySize=auto;html=1;endArrow=none;endFill=0;" edge="1" parent="1" source="blV9PTF11IVI_z7g0Vjc-33">
          <mxGeometry relative="1" as="geometry">
            <mxPoint x="339" y="450" as="targetPoint" />
          </mxGeometry>
        </mxCell>
        <mxCell id="blV9PTF11IVI_z7g0Vjc-33" value="보도자료" style="ellipse;whiteSpace=wrap;html=1;" vertex="1" parent="1">
          <mxGeometry x="361" y="485" width="86" height="30" as="geometry" />
        </mxCell>
        <mxCell id="blV9PTF11IVI_z7g0Vjc-40" value="수강료 조회" style="ellipse;whiteSpace=wrap;html=1;" vertex="1" parent="1">
          <mxGeometry x="361" y="325" width="86" height="30" as="geometry" />
        </mxCell>
        <mxCell id="blV9PTF11IVI_z7g0Vjc-42" value="" style="edgeStyle=elbowEdgeStyle;elbow=vertical;endArrow=none;html=1;curved=0;rounded=0;endSize=8;startSize=8;exitX=0.5;exitY=0;exitDx=0;exitDy=0;dashed=1;endFill=0;startArrow=open;startFill=0;" edge="1" parent="1" source="blV9PTF11IVI_z7g0Vjc-25">
          <mxGeometry width="50" height="50" relative="1" as="geometry">
            <mxPoint x="358" y="390" as="sourcePoint" />
            <mxPoint x="408" y="340" as="targetPoint" />
            <Array as="points">
              <mxPoint x="349" y="370" />
            </Array>
          </mxGeometry>
        </mxCell>
        <mxCell id="blV9PTF11IVI_z7g0Vjc-43" value="&amp;lt;&amp;lt;extends&amp;gt;&amp;gt;" style="edgeLabel;html=1;align=center;verticalAlign=middle;resizable=0;points=[];" vertex="1" connectable="0" parent="blV9PTF11IVI_z7g0Vjc-42">
          <mxGeometry x="0.271" y="3" relative="1" as="geometry">
            <mxPoint as="offset" />
          </mxGeometry>
        </mxCell>
        <mxCell id="blV9PTF11IVI_z7g0Vjc-44" value="회원관리" style="ellipse;whiteSpace=wrap;html=1;" vertex="1" parent="1">
          <mxGeometry x="598" y="359" width="90" height="40" as="geometry" />
        </mxCell>
        <mxCell id="blV9PTF11IVI_z7g0Vjc-45" value="강사관리" style="ellipse;whiteSpace=wrap;html=1;" vertex="1" parent="1">
          <mxGeometry x="598" y="440" width="90" height="40" as="geometry" />
        </mxCell>
        <mxCell id="blV9PTF11IVI_z7g0Vjc-46" value="모니터링" style="ellipse;whiteSpace=wrap;html=1;" vertex="1" parent="1">
          <mxGeometry x="598" y="530" width="90" height="40" as="geometry" />
        </mxCell>
        <mxCell id="blV9PTF11IVI_z7g0Vjc-49" value="use" style="endArrow=none;html=1;rounded=0;exitX=1;exitY=0.5;exitDx=0;exitDy=0;" edge="1" parent="1" source="blV9PTF11IVI_z7g0Vjc-44">
          <mxGeometry width="50" height="50" relative="1" as="geometry">
            <mxPoint x="658" y="415" as="sourcePoint" />
            <mxPoint x="748" y="460" as="targetPoint" />
          </mxGeometry>
        </mxCell>
        <mxCell id="blV9PTF11IVI_z7g0Vjc-51" value="use" style="endArrow=none;html=1;rounded=0;exitX=1;exitY=0.5;exitDx=0;exitDy=0;" edge="1" parent="1" source="blV9PTF11IVI_z7g0Vjc-45">
          <mxGeometry width="50" height="50" relative="1" as="geometry">
            <mxPoint x="668" y="500" as="sourcePoint" />
            <mxPoint x="748" y="460" as="targetPoint" />
          </mxGeometry>
        </mxCell>
        <mxCell id="blV9PTF11IVI_z7g0Vjc-52" value="use" style="endArrow=none;html=1;rounded=0;exitX=1;exitY=0.5;exitDx=0;exitDy=0;" edge="1" parent="1" source="blV9PTF11IVI_z7g0Vjc-46">
          <mxGeometry width="50" height="50" relative="1" as="geometry">
            <mxPoint x="658" y="590" as="sourcePoint" />
            <mxPoint x="748" y="460" as="targetPoint" />
          </mxGeometry>
        </mxCell>
        <mxCell id="blV9PTF11IVI_z7g0Vjc-53" value="회원조회" style="ellipse;whiteSpace=wrap;html=1;" vertex="1" parent="1">
          <mxGeometry x="470" y="304" width="80" height="30" as="geometry" />
        </mxCell>
        <mxCell id="blV9PTF11IVI_z7g0Vjc-54" value="회원수정" style="ellipse;whiteSpace=wrap;html=1;" vertex="1" parent="1">
          <mxGeometry x="470" y="364" width="80" height="30" as="geometry" />
        </mxCell>
        <mxCell id="blV9PTF11IVI_z7g0Vjc-55" value="회원삭제" style="ellipse;whiteSpace=wrap;html=1;" vertex="1" parent="1">
          <mxGeometry x="470" y="429" width="80" height="25" as="geometry" />
        </mxCell>
        <mxCell id="blV9PTF11IVI_z7g0Vjc-56" value="" style="shape=partialRectangle;whiteSpace=wrap;html=1;bottom=1;right=1;left=1;top=0;fillColor=none;routingCenterX=-0.5;direction=north;" vertex="1" parent="1">
          <mxGeometry x="550" y="320" width="28" height="130" as="geometry" />
        </mxCell>
        <mxCell id="blV9PTF11IVI_z7g0Vjc-57" value="" style="endArrow=block;html=1;rounded=0;entryX=0;entryY=0.5;entryDx=0;entryDy=0;endFill=0;exitX=1;exitY=0.5;exitDx=0;exitDy=0;" edge="1" parent="1" source="blV9PTF11IVI_z7g0Vjc-54" target="blV9PTF11IVI_z7g0Vjc-44">
          <mxGeometry width="50" height="50" relative="1" as="geometry">
            <mxPoint x="558" y="379" as="sourcePoint" />
            <mxPoint x="600" y="335" as="targetPoint" />
          </mxGeometry>
        </mxCell>
        <mxCell id="blV9PTF11IVI_z7g0Vjc-59" value="전체" style="ellipse;whiteSpace=wrap;html=1;" vertex="1" parent="1">
          <mxGeometry x="440" y="220" width="60" height="30" as="geometry" />
        </mxCell>
        <mxCell id="blV9PTF11IVI_z7g0Vjc-60" value="키워드" style="ellipse;whiteSpace=wrap;html=1;" vertex="1" parent="1">
          <mxGeometry x="530" y="220" width="60" height="30" as="geometry" />
        </mxCell>
        <mxCell id="blV9PTF11IVI_z7g0Vjc-61" value="" style="shape=partialRectangle;whiteSpace=wrap;html=1;bottom=1;right=1;left=1;top=0;fillColor=none;routingCenterX=-0.5;" vertex="1" parent="1">
          <mxGeometry x="470" y="250" width="90" height="20" as="geometry" />
        </mxCell>
        <mxCell id="blV9PTF11IVI_z7g0Vjc-63" value="" style="endArrow=open;html=1;rounded=0;entryX=0.5;entryY=0;entryDx=0;entryDy=0;endFill=0;exitX=0.5;exitY=1;exitDx=0;exitDy=0;" edge="1" parent="1" source="blV9PTF11IVI_z7g0Vjc-61" target="blV9PTF11IVI_z7g0Vjc-53">
          <mxGeometry width="50" height="50" relative="1" as="geometry">
            <mxPoint x="508" y="270" as="sourcePoint" />
            <mxPoint x="558" y="220" as="targetPoint" />
          </mxGeometry>
        </mxCell>
        <mxCell id="blV9PTF11IVI_z7g0Vjc-64" value="강의조회" style="ellipse;whiteSpace=wrap;html=1;" vertex="1" parent="1">
          <mxGeometry x="245" y="226" width="84" height="46" as="geometry" />
        </mxCell>
        <mxCell id="blV9PTF11IVI_z7g0Vjc-65" value="수강신청" style="ellipse;whiteSpace=wrap;html=1;" vertex="1" parent="1">
          <mxGeometry x="310" y="150" width="84" height="46" as="geometry" />
        </mxCell>
        <mxCell id="blV9PTF11IVI_z7g0Vjc-66" value="결제방식" style="ellipse;whiteSpace=wrap;html=1;" vertex="1" parent="1">
          <mxGeometry x="394" y="90" width="84" height="46" as="geometry" />
        </mxCell>
        <mxCell id="blV9PTF11IVI_z7g0Vjc-67" value="확인" style="ellipse;whiteSpace=wrap;html=1;" vertex="1" parent="1">
          <mxGeometry x="494" y="40" width="84" height="46" as="geometry" />
        </mxCell>
        <mxCell id="blV9PTF11IVI_z7g0Vjc-69" value="결제시스템" style="rounded=0;whiteSpace=wrap;html=1;" vertex="1" parent="1">
          <mxGeometry x="850" y="40" width="120" height="60" as="geometry" />
        </mxCell>
        <mxCell id="blV9PTF11IVI_z7g0Vjc-70" value="use" style="endArrow=none;html=1;rounded=0;entryX=0;entryY=0.5;entryDx=0;entryDy=0;" edge="1" parent="1" target="blV9PTF11IVI_z7g0Vjc-69">
          <mxGeometry width="50" height="50" relative="1" as="geometry">
            <mxPoint x="578" y="65" as="sourcePoint" />
            <mxPoint x="628" y="15" as="targetPoint" />
          </mxGeometry>
        </mxCell>
      </root>
    </mxGraphModel>
  </diagram>
</mxfile>
